<?xml version="1.0" encoding="UTF-8" standalone="no"?>
<!-- Created with Inkscape (http://www.inkscape.org/) -->
<svg xmlns:dc="http://purl.org/dc/elements/1.1/" xmlns:cc="http://creativecommons.org/ns#" xmlns:rdf="http://www.w3.org/1999/02/22-rdf-syntax-ns#" xmlns:svg="http://www.w3.org/2000/svg" xmlns="http://www.w3.org/2000/svg" xmlns:sodipodi="http://sodipodi.sourceforge.net/DTD/sodipodi-0.dtd" xmlns:inkscape="http://www.inkscape.org/namespaces/inkscape" width="294.45905" height="249.13686" id="svg2" sodipodi:version="0.32" inkscape:version="0.48.3.1 r9886" sodipodi:docname="emacs_logo.svg" inkscape:output_extension="org.inkscape.output.svg.inkscape" version="1.1">
  <defs id="defs4">
    <inkscape:perspective sodipodi:type="inkscape:persp3d" inkscape:vp_x="0 : 526.18109 : 1" inkscape:vp_y="0 : 1000 : 0" inkscape:vp_z="744.09448 : 526.18109 : 1" inkscape:persp3d-origin="372.04724 : 350.78739 : 1" id="perspective20"/>
    <linearGradient id="linearGradient6891">
      <stop style="stop-color:#ff003b;stop-opacity:1;" offset="0" id="stop6893"/>
      <stop style="stop-color:#cfb9b9;stop-opacity:0;" offset="1" id="stop6895"/>
    </linearGradient>
    <linearGradient id="linearGradient5105">
      <stop style="stop-color:#643ec4;stop-opacity:1;" offset="0" id="stop5107"/>
      <stop style="stop-color:lime;stop-opacity:0;" offset="1" id="stop5109"/>
    </linearGradient>
    <inkscape:perspective id="perspective2568" inkscape:persp3d-origin="372.04724 : 350.78739 : 1" inkscape:vp_z="744.09448 : 526.18109 : 1" inkscape:vp_y="0 : 1000 : 0" inkscape:vp_x="0 : 526.18109 : 1" sodipodi:type="inkscape:persp3d"/>
    <inkscape:perspective id="perspective2527" inkscape:persp3d-origin="372.04724 : 350.78739 : 1" inkscape:vp_z="744.09448 : 526.18109 : 1" inkscape:vp_y="0 : 1000 : 0" inkscape:vp_x="0 : 526.18109 : 1" sodipodi:type="inkscape:persp3d"/>
    <inkscape:perspective id="perspective2768" inkscape:persp3d-origin="372.04724 : 350.78739 : 1" inkscape:vp_z="744.09448 : 526.18109 : 1" inkscape:vp_y="0 : 1000 : 0" inkscape:vp_x="0 : 526.18109 : 1" sodipodi:type="inkscape:persp3d"/>
    <inkscape:perspective id="perspective2835" inkscape:persp3d-origin="372.04724 : 350.78739 : 1" inkscape:vp_z="744.09448 : 526.18109 : 1" inkscape:vp_y="0 : 1000 : 0" inkscape:vp_x="0 : 526.18109 : 1" sodipodi:type="inkscape:persp3d"/>
    <inkscape:perspective id="perspective3761" inkscape:persp3d-origin="372.04724 : 350.78739 : 1" inkscape:vp_z="744.09448 : 526.18109 : 1" inkscape:vp_y="0 : 1000 : 0" inkscape:vp_x="0 : 526.18109 : 1" sodipodi:type="inkscape:persp3d"/>
  </defs>
  <sodipodi:namedview id="base" pagecolor="#ffffff" bordercolor="#666666" borderopacity="1.0" gridtolerance="10000" guidetolerance="10" objecttolerance="10" inkscape:pageopacity="0.0" inkscape:pageshadow="2" inkscape:zoom="1" inkscape:cx="359.41321" inkscape:cy="-10.537785" inkscape:document-units="px" inkscape:current-layer="layer1" inkscape:window-width="1156" inkscape:window-height="790" inkscape:window-x="239" inkscape:window-y="25" showgrid="false" fit-margin-top="0" fit-margin-left="0" fit-margin-right="0" fit-margin-bottom="0" inkscape:window-maximized="0"/>
  <metadata id="metadata7">
    <rdf:RDF>
      <cc:Work rdf:about="">
        <dc:format>image/svg+xml</dc:format>
        <dc:type rdf:resource="http://purl.org/dc/dcmitype/StillImage"/>
      </cc:Work>
    </rdf:RDF>
  </metadata>
  <g inkscape:label="Layer 1" inkscape:groupmode="layer" id="layer1" transform="translate(-81.453396,-140.08808)">
    <g id="g2998" transform="matrix(0.5041051,0,0,0.5041051,40.392324,69.468967)">
      <path id="path5242" d="m 97.96269,571.8895 c -11.47911,-3.7669 -14.96408,-9.4464 -15.95916,-15.9172 -1.36782,-16.9547 25.57741,-45.684 41.17824,-64.1728 5.14559,-6.5193 25.52727,-24.4392 30.22449,-29.2346 -14.32665,-1.7598 -18.7512,-3.0626 -21.46324,-11.5992 -4.7947,-21.0099 69.5238,-78.572 107.43483,-97.6575 15.89879,-7.9512 43.7014,-14.904 50.54275,-13.0639 18.36362,10.502 -30.17177,40.6895 -44.54819,51.494 -15.79012,2.4805 60.3609,-46.5997 9.88106,-30.3761 -17.35177,5.4432 -33.90026,13.82835 -49.47734,23.82526 -15.57708,9.99692 -26.91498,19.04493 -40.3811,30.93518 -10.22664,10.88715 -5.05605,16.20251 1.4821,18.49151 6.53815,2.289 15.92612,2.1123 21.8487,1.13665 11.07682,-1.1921 55.74863,-25.5791 37.6026,-9.1827 -27.23825,22.0839 -64.87421,35.8976 -86.10441,58.4698 -3.89186,3.5887 -19.51298,18.1541 -25.84983,31.2211 -6.33685,13.067 -6.57141,25.5195 9.70323,27.5343 32.46146,0.6607 54.12385,-28.9262 78.47466,-46.2732 10.51655,-11.9475 62.8871,-47.4972 38.7757,-8.4144 -10.02216,13.5626 -33.48444,48.2022 -4.69225,21.1905 7.97288,-6.2197 20.05753,-18.3914 32.1756,-26.7003 12.11807,-8.3089 27.62673,-14.2636 32.19928,-7.5012 1.2128,1.8206 -4.48173,18.9954 -3.79702,20.1362 2.18732,-0.627 10.71368,-7.4445 15.2114,-10.7458 4.16997,-3.0608 13.69014,-9.6302 20.38892,-12.9591 6.69879,-3.3289 16.08253,-2.6312 17.56396,-0.6679 2.56631,4.0554 -4.6439,17.5113 -8.37676,27.0337 -3.73285,9.5223 -6.91326,19.2773 -1.52648,26.6618 10.47652,10.7135 43.8562,-19.0349 58.33153,-29.1169 14.47533,-10.0821 40.13406,-26.1488 60.22745,-31.1482 -18.36529,22.4037 -69.56458,35.9705 -67.17258,67.4656 0.24097,2.9388 15.81382,-3.0501 23.28537,-5.1132 -11.65439,9.0059 -62.18334,43.0334 -50.99658,11.7213 2.03682,-5.3568 3.78412,-7.104 5.40062,-11.371 -3.40265,-3.7143 -28.88304,21.021 -46.88054,23.5076 -22.02063,2.6802 -17.83073,-20.9329 -9.61626,-36.3298 11.27562,-21.1346 6.69812,-28.0282 -7.735,-13.8843 -17.93252,18.5697 -33.16584,45.223 -57.50736,54.5453 2.57669,-14.1501 43.59077,-68.2292 6.26946,-51.3435 -24.47569,18.9495 -43.35989,45.4109 -69.95987,61.1814 1.00344,-21.7401 27.97675,-45.6072 34.11553,-69.3315 -36.04635,23.7385 -71.82465,62.104 -94.9339,70.7832 -3.55339,1.5947 -18.55824,6.9134 -25.33961,4.7699 z m 335.74442,-21.536 c -12.49649,-2.2733 -15.36946,-24.7707 -6.36917,-39.506 9.00029,-14.7354 28.98996,-28.6029 41.18231,-33.4153 -2.08254,3.3221 -11.42371,20.5483 -14.12643,34.6012 -2.70272,14.053 3.88465,21.7505 24.99713,15.7383 18.29715,-5.3979 27.09827,-19.6968 40.21386,-31.1978 13.1156,-11.501 28.0708,-20.5575 44.53402,-27.8453 7.77959,-2.5807 17.7673,-3.6135 19.67179,-2.042 -1.63104,2.6322 -8.87044,6.2778 -19.28159,10.2257 -10.25515,3.8736 -23.26489,12.4733 -32.78677,23.544 -12.12085,14.0925 -9.15797,26.9768 5.74319,30.7908 3.59979,1.5615 45.7524,-7.5648 17.3017,4.1299 -9.2781,3.3629 -29.50761,10.9334 -43.99194,12.2973 -14.48433,1.364 -23.22349,-3.4787 -20.12748,-20.6994 -12.37237,7.9844 -36.49468,26.825 -56.96062,23.3786 z m 142.00004,-5.8861 c 4.586,-22.8959 52.4301,9.5731 63.7046,-20.4028 14.48,-38.4139 -41.2166,-20.7996 -59.5444,-28.984 8.3884,-18.6207 64.7654,-34.5078 62.6633,-26.867 -18.134,1.5776 -51.389,28.1007 -13.3341,23.2294 22.1973,-5.5218 43.6201,7.0646 33.1388,29.6604 -21.7042,24.1825 -57.2509,22.0935 -86.6282,23.364 z" style="fill:#1f59b5;fill-opacity:1;stroke:#1f59b5;stroke-opacity:1" sodipodi:nodetypes="cccccccccscscccsccccsccsscsczccccccsccccccccscscscccsccsccccccccc" inkscape:connector-curvature="0"/>
      <path d="m 383.57396,439.65528 c 4.52966,-0.60997 8.3017,14.72751 16.63605,10.59148 23.71222,-19.26972 39.35019,-63.29212 60.86307,-93.15206 5.57003,2.70218 -19.47315,49.07658 -31.82635,72.10892 -10.13491,18.65119 -27.88167,49.25382 -36.43869,56.90653 -16.43914,7.36685 -13.15694,-6.7875 -20.65717,-7.39477 -7.85153,-0.63572 -17.84448,27.58933 -23.67327,37.22968 -12.59758,24.58565 -14.38889,35.07109 -18.06032,35.89611 -3.33573,0.74959 1.99837,-21.21457 13.49893,-46.56164 11.50056,-25.34707 34.72492,-64.95999 39.65775,-65.62425 z M 181.25862,633.78746 c 2.34115,-10.1081 8.09981,-30.72951 13.57669,-39.34654 2.67883,-4.6838 4.9014,-9.55303 7.9074,-14.07874 10.04803,-15.01882 20.75424,-29.57463 31.21409,-44.30384 9.2997,-14.36482 21.83513,-26.61653 30.79625,-41.19616 10.33177,-13.09388 19.80983,-26.81311 29.60792,-40.30122 5.91843,-5.87577 27.41853,-47.03148 32.22112,-47.50441 -9.13294,33.27053 -35.14284,74.96067 -53.0296,98.30563 -20.46268,27.99994 -43.0567,56.35416 -62.05249,85.35681 -7.68297,8.77344 -27.32417,43.96258 -30.24138,43.06847 z M 523.56784,490.17284 c 4.7154,-73.29043 32.99935,-143.09504 50.45174,-213.74444 5.62807,-28.16419 12.16335,-57.88185 3.62232,-86.17057 -5.80437,-14.07553 -39.02251,-23.54893 -39.48228,-1.91918 -0.44472,9.94415 -12.57734,31.6424 -17.71928,15.87554 3.24349,-17.74211 18.24209,-39.61694 27.78618,-54.35405 12.00373,-13.60107 36.28667,-12.10016 45.89601,3.59033 11.60574,17.27157 6.2528,39.10554 4.58774,58.36899 -10.52337,74.7074 -45.90617,138.45666 -56.76176,217.85777 -3.81842,20.19064 -5.45629,41.18619 -13.55047,60.25762 -1.42173,3.25421 -5.36704,5.00575 -4.8302,0.23799 z M 318.16667,375.69551 C 317.8,375.32885 317.5,366.21491 317.5,355.44233 c 0,-24.47358 -1.20847,-29.29766 -12.59503,-50.27815 -1.61591,-2.97744 -15.54407,-13.77305 -14.25254,-17.55783 1.38604,-4.06172 18.56984,-28.24417 20.07002,-28.24417 20.88529,8.91638 26.17801,34.93652 27.19141,55 1.56557,6.80001 -4.29057,57.33078 -19.74719,61.33333 z M 164.12781,355.9169 c -12.17997,-15.82591 38.30014,-84.37677 52.48742,-104.55472 15.90292,-23.03426 20.52304,-28.5451 22.53292,-26.87704 1.5217,1.26289 -0.093,5.03505 -4.65587,10.87704 -6.79479,11.03643 -14.9619,21.04986 -22.49228,31.56408 -9.15996,14.27703 -20.0138,27.69752 -26.51598,43.49164 -0.98264,5.14195 -2.44977,11.69659 1.46306,15.89456 5.30105,4.98008 21.2754,4.94087 30.18575,-0.0741 19.82198,-11.7979 37.57701,-26.4697 54.9818,-41.57138 7.5551,-6.8011 11.38537,-8.87902 11.38537,-6.17653 -20.74922,31.95538 -44.09619,50.85004 -66.38391,68.05291 -19.18018,12.59719 -40.93862,25.03014 -52.98828,9.37354 z m 268.99361,-91.29609 c 3.89752,-4.94875 12.35006,-28.49436 15.96104,-31.23283 5.5158,5.35924 8.74363,11.05783 17.24443,11.9742 25.66035,-0.99688 32.69957,-22.65305 45.86334,-40 -1.34642,18.63777 -12.70267,35.35615 -22.42113,50.8213 -6.5262,8.80903 -19.85083,19.65641 -27.4195,22.32181 -11.03714,3.89963 -29.54071,1.02997 -29.22818,-13.88448 z M 379.5,267.0689 c -9.04125,-2.4245 -14.75915,-6.45554 -26.78415,-18.88246 -24.10808,-24.91386 -40.11784,-40.63158 -42.87305,-42.091 -21.57123,-11.42612 -16.50782,-9.43564 -28.3033,-10.76202 -6.92129,2.7321 -17.77243,4.5646 -23.52337,18.93126 -4.6272,11.09629 -7.44974,13.71846 -9.52359,8.8475 -6.17083,-12.57062 -23.0351,-32.77326 -36.21243,-36.70936 -11.4643,4.3389 -19.80771,14.16308 -27.6243,23.1954 -7.72231,9.1815 -26.95316,26.59767 -32.43405,29.37347 -7.35365,4.42771 -15.45468,8.59946 -24.24362,5.94935 -9.22491,-4.42393 -15.80747,-13.58485 -19.47814,-23.10848 2.53784,-9.25047 7.73205,-17.45014 10.51539,-26.70038 2.24115,-7.92277 4.21639,-7.72553 8.60551,0.85931 4.27423,7.29279 9.21889,16.18273 18.48933,16.39069 12.37223,-0.54378 21.12358,-8.81173 30.03567,-16.24622 2.83025,-2.33958 10.16614,-9.87878 16.30197,-16.75378 22.50991,-25.22162 27.03119,-27.45987 42.32387,-20.95225 14.79214,7.10138 16.40099,12.33929 27.14247,24.7645 5.80907,-11.69472 26.09005,-26.33053 35.86953,-24.99014 9.47204,1.29825 27.94699,11.79933 47.17005,31.57002 15.38944,15.82786 28.37335,34.82 49.31248,42.83971 9.29796,4.09571 22.57415,-1.66943 32.56513,-12.92329 3.86904,-2.03696 4.377,-8.72494 8.23599,-10.30855 2.63126,9.47812 -4.99947,20.75729 -9.12536,29.67606 -4.93668,10.70597 -13.23665,20.00389 -23.44203,26.00238 -5.59045,2.70632 -16.78882,3.69386 -23,2.02828 z" style="fill:#a13423;fill-opacity:1;stroke:#a13423;stroke-opacity:1" id="path5258" inkscape:connector-curvature="0"/>
    </g>
  </g>
</svg>